<mxfile host="Electron" modified="2024-07-20T21:36:33.589Z" agent="Mozilla/5.0 (X11; Linux x86_64) AppleWebKit/537.36 (KHTML, like Gecko) draw.io/24.6.4 Chrome/124.0.6367.207 Electron/30.0.6 Safari/537.36" etag="djCOeIi4UG_2B_rUh8I-" version="24.6.4" type="device">
  <diagram name="Página-1" id="cRDdvzmO0vVrcLv-pNC9">
    <mxGraphModel dx="871" dy="1157" grid="1" gridSize="10" guides="1" tooltips="1" connect="1" arrows="1" fold="1" page="1" pageScale="1" pageWidth="827" pageHeight="1169" math="0" shadow="0">
      <root>
        <mxCell id="0" />
        <mxCell id="1" parent="0" />
        <mxCell id="JXf-ynh_k44b_h4Liy5j-1" value="En este punto se asume que el usuario ya está autencicado" style="strokeWidth=1;shadow=0;dashed=0;align=center;html=1;shape=mxgraph.mockup.text.stickyNote2;fontColor=#666666;mainText=;fontSize=17;whiteSpace=wrap;fillColor=#ffffcc;strokeColor=#F62E00;" vertex="1" parent="1">
          <mxGeometry x="630" y="80" width="151" height="130" as="geometry" />
        </mxCell>
        <mxCell id="JXf-ynh_k44b_h4Liy5j-2" value="" style="ellipse;html=1;shape=endState;fillColor=#000000;strokeColor=default;" vertex="1" parent="1">
          <mxGeometry x="610" y="630" width="30" height="30" as="geometry" />
        </mxCell>
        <mxCell id="JXf-ynh_k44b_h4Liy5j-3" value="" style="shape=mxgraph.sysml.x;" vertex="1" parent="1">
          <mxGeometry x="620" y="640" width="10" height="10" as="geometry" />
        </mxCell>
        <mxCell id="JXf-ynh_k44b_h4Liy5j-4" value="" style="ellipse;html=1;shape=startState;fillColor=#000000;strokeColor=#ff0000;" vertex="1" parent="1">
          <mxGeometry x="399" y="130" width="30" height="30" as="geometry" />
        </mxCell>
        <mxCell id="JXf-ynh_k44b_h4Liy5j-5" value="" style="edgeStyle=orthogonalEdgeStyle;html=1;verticalAlign=bottom;endArrow=open;endSize=8;strokeColor=#ff0000;rounded=0;" edge="1" source="JXf-ynh_k44b_h4Liy5j-4" parent="1">
          <mxGeometry relative="1" as="geometry">
            <mxPoint x="414" y="220" as="targetPoint" />
          </mxGeometry>
        </mxCell>
        <mxCell id="JXf-ynh_k44b_h4Liy5j-25" style="edgeStyle=orthogonalEdgeStyle;rounded=0;orthogonalLoop=1;jettySize=auto;html=1;" edge="1" parent="1" source="JXf-ynh_k44b_h4Liy5j-6" target="JXf-ynh_k44b_h4Liy5j-7">
          <mxGeometry relative="1" as="geometry" />
        </mxCell>
        <mxCell id="JXf-ynh_k44b_h4Liy5j-6" value="Acceder a la pantalla de zapatos" style="rounded=1;whiteSpace=wrap;html=1;" vertex="1" parent="1">
          <mxGeometry x="354" y="220" width="120" height="30" as="geometry" />
        </mxCell>
        <mxCell id="JXf-ynh_k44b_h4Liy5j-26" style="edgeStyle=orthogonalEdgeStyle;rounded=0;orthogonalLoop=1;jettySize=auto;html=1;" edge="1" parent="1" source="JXf-ynh_k44b_h4Liy5j-7" target="JXf-ynh_k44b_h4Liy5j-8">
          <mxGeometry relative="1" as="geometry" />
        </mxCell>
        <mxCell id="JXf-ynh_k44b_h4Liy5j-7" value="Consultar zapatos en la bases de datos" style="rounded=1;whiteSpace=wrap;html=1;" vertex="1" parent="1">
          <mxGeometry x="354" y="280" width="120" height="30" as="geometry" />
        </mxCell>
        <mxCell id="JXf-ynh_k44b_h4Liy5j-10" style="edgeStyle=orthogonalEdgeStyle;rounded=0;orthogonalLoop=1;jettySize=auto;html=1;entryX=0.5;entryY=0;entryDx=0;entryDy=0;exitX=0;exitY=0.5;exitDx=0;exitDy=0;" edge="1" parent="1" source="JXf-ynh_k44b_h4Liy5j-8" target="JXf-ynh_k44b_h4Liy5j-9">
          <mxGeometry relative="1" as="geometry" />
        </mxCell>
        <mxCell id="JXf-ynh_k44b_h4Liy5j-13" style="edgeStyle=orthogonalEdgeStyle;rounded=0;orthogonalLoop=1;jettySize=auto;html=1;entryX=0.5;entryY=0;entryDx=0;entryDy=0;" edge="1" parent="1" source="JXf-ynh_k44b_h4Liy5j-8" target="JXf-ynh_k44b_h4Liy5j-12">
          <mxGeometry relative="1" as="geometry" />
        </mxCell>
        <mxCell id="JXf-ynh_k44b_h4Liy5j-8" value="¿Error en la consulta?" style="rhombus;whiteSpace=wrap;html=1;" vertex="1" parent="1">
          <mxGeometry x="374" y="330" width="80" height="80" as="geometry" />
        </mxCell>
        <mxCell id="JXf-ynh_k44b_h4Liy5j-30" style="edgeStyle=orthogonalEdgeStyle;rounded=0;orthogonalLoop=1;jettySize=auto;html=1;entryX=0.5;entryY=0;entryDx=0;entryDy=0;" edge="1" parent="1" source="JXf-ynh_k44b_h4Liy5j-9" target="JXf-ynh_k44b_h4Liy5j-27">
          <mxGeometry relative="1" as="geometry" />
        </mxCell>
        <mxCell id="JXf-ynh_k44b_h4Liy5j-9" value="Mostrar mensaje: Hubo un error al momento de obtener los zapatos, por favor contacte con el técni co" style="rounded=1;whiteSpace=wrap;html=1;" vertex="1" parent="1">
          <mxGeometry x="200" y="420" width="190" height="80" as="geometry" />
        </mxCell>
        <mxCell id="JXf-ynh_k44b_h4Liy5j-11" value="Sí" style="text;html=1;align=center;verticalAlign=middle;resizable=0;points=[];autosize=1;strokeColor=none;fillColor=none;" vertex="1" parent="1">
          <mxGeometry x="315" y="338" width="30" height="30" as="geometry" />
        </mxCell>
        <mxCell id="JXf-ynh_k44b_h4Liy5j-17" style="edgeStyle=orthogonalEdgeStyle;rounded=0;orthogonalLoop=1;jettySize=auto;html=1;exitX=1;exitY=0.5;exitDx=0;exitDy=0;" edge="1" parent="1" source="JXf-ynh_k44b_h4Liy5j-12" target="JXf-ynh_k44b_h4Liy5j-16">
          <mxGeometry relative="1" as="geometry" />
        </mxCell>
        <mxCell id="JXf-ynh_k44b_h4Liy5j-18" style="edgeStyle=orthogonalEdgeStyle;rounded=0;orthogonalLoop=1;jettySize=auto;html=1;exitX=0;exitY=0.5;exitDx=0;exitDy=0;" edge="1" parent="1" source="JXf-ynh_k44b_h4Liy5j-12" target="JXf-ynh_k44b_h4Liy5j-15">
          <mxGeometry relative="1" as="geometry" />
        </mxCell>
        <mxCell id="JXf-ynh_k44b_h4Liy5j-12" value="¿Hay existencias?" style="rhombus;whiteSpace=wrap;html=1;" vertex="1" parent="1">
          <mxGeometry x="460" y="410" width="100" height="90" as="geometry" />
        </mxCell>
        <mxCell id="JXf-ynh_k44b_h4Liy5j-14" value="No" style="text;html=1;align=center;verticalAlign=middle;resizable=0;points=[];autosize=1;strokeColor=none;fillColor=none;" vertex="1" parent="1">
          <mxGeometry x="460" y="338" width="40" height="30" as="geometry" />
        </mxCell>
        <mxCell id="JXf-ynh_k44b_h4Liy5j-23" style="edgeStyle=orthogonalEdgeStyle;rounded=0;orthogonalLoop=1;jettySize=auto;html=1;" edge="1" parent="1" source="JXf-ynh_k44b_h4Liy5j-15" target="JXf-ynh_k44b_h4Liy5j-21">
          <mxGeometry relative="1" as="geometry" />
        </mxCell>
        <mxCell id="JXf-ynh_k44b_h4Liy5j-15" value="Mostrar lista de zapatos disponibles" style="rounded=1;whiteSpace=wrap;html=1;" vertex="1" parent="1">
          <mxGeometry x="380" y="540" width="120" height="30" as="geometry" />
        </mxCell>
        <mxCell id="JXf-ynh_k44b_h4Liy5j-31" style="edgeStyle=orthogonalEdgeStyle;rounded=0;orthogonalLoop=1;jettySize=auto;html=1;" edge="1" parent="1" source="JXf-ynh_k44b_h4Liy5j-16" target="JXf-ynh_k44b_h4Liy5j-2">
          <mxGeometry relative="1" as="geometry" />
        </mxCell>
        <mxCell id="JXf-ynh_k44b_h4Liy5j-16" value="Mostrar mensaje de zapatos no encontrados" style="rounded=1;whiteSpace=wrap;html=1;" vertex="1" parent="1">
          <mxGeometry x="560" y="540" width="130" height="50" as="geometry" />
        </mxCell>
        <mxCell id="JXf-ynh_k44b_h4Liy5j-19" value="Sí" style="text;html=1;align=center;verticalAlign=middle;resizable=0;points=[];autosize=1;strokeColor=none;fillColor=none;" vertex="1" parent="1">
          <mxGeometry x="430" y="420" width="30" height="30" as="geometry" />
        </mxCell>
        <mxCell id="JXf-ynh_k44b_h4Liy5j-20" value="No" style="text;html=1;align=center;verticalAlign=middle;resizable=0;points=[];autosize=1;strokeColor=none;fillColor=none;" vertex="1" parent="1">
          <mxGeometry x="573.5" y="420" width="40" height="30" as="geometry" />
        </mxCell>
        <mxCell id="JXf-ynh_k44b_h4Liy5j-24" style="edgeStyle=orthogonalEdgeStyle;rounded=0;orthogonalLoop=1;jettySize=auto;html=1;" edge="1" parent="1" source="JXf-ynh_k44b_h4Liy5j-21" target="JXf-ynh_k44b_h4Liy5j-22">
          <mxGeometry relative="1" as="geometry" />
        </mxCell>
        <mxCell id="JXf-ynh_k44b_h4Liy5j-21" value="Seleccionar zapato para más detalles" style="rounded=1;whiteSpace=wrap;html=1;" vertex="1" parent="1">
          <mxGeometry x="380" y="610" width="120" height="30" as="geometry" />
        </mxCell>
        <mxCell id="JXf-ynh_k44b_h4Liy5j-33" style="edgeStyle=orthogonalEdgeStyle;rounded=0;orthogonalLoop=1;jettySize=auto;html=1;" edge="1" parent="1" source="JXf-ynh_k44b_h4Liy5j-22" target="JXf-ynh_k44b_h4Liy5j-32">
          <mxGeometry relative="1" as="geometry" />
        </mxCell>
        <mxCell id="JXf-ynh_k44b_h4Liy5j-22" value="Mostrar detalles del zapato" style="rounded=1;whiteSpace=wrap;html=1;" vertex="1" parent="1">
          <mxGeometry x="380" y="680" width="120" height="30" as="geometry" />
        </mxCell>
        <mxCell id="JXf-ynh_k44b_h4Liy5j-27" value="" style="ellipse;html=1;shape=endState;fillColor=#000000;strokeColor=default;" vertex="1" parent="1">
          <mxGeometry x="280" y="520" width="30" height="30" as="geometry" />
        </mxCell>
        <mxCell id="JXf-ynh_k44b_h4Liy5j-28" value="" style="shape=mxgraph.sysml.x;" vertex="1" parent="1">
          <mxGeometry x="290" y="530" width="10" height="10" as="geometry" />
        </mxCell>
        <mxCell id="JXf-ynh_k44b_h4Liy5j-32" value="" style="ellipse;html=1;shape=endState;fillColor=#000000;strokeColor=#ff0000;" vertex="1" parent="1">
          <mxGeometry x="425" y="740" width="30" height="30" as="geometry" />
        </mxCell>
      </root>
    </mxGraphModel>
  </diagram>
</mxfile>
